Coordinates
version=1
nRows=10
nColumns=38
inDegrees=yes

Units are S.I. units (second, meters, Newtons, ...)
Angles are in degrees.

endheader
time	first_body_tilt	first_body_list	first_body_rotation	first_body_tx	first_body_ty	first_body_tz	hip_flexion_r	hip_adduction_r	hip_rotation_r	knee_angle_r	ankle_angle_r	subtalar_angle_r	mtp_angle_r	hip_flexion_l	hip_adduction_l	hip_rotation_l	knee_angle_l	ankle_angle_l	subtalar_angle_l	mtp_angle_l	lumbar_extension	lumbar_bending	lumbar_rotation	arm_flex_r	arm_add_r	arm_rot_r	elbow_flex_r	pro_sup_r	wrist_flex_r	wrist_dev_r	arm_flex_l	arm_add_l	arm_rot_l	elbow_flex_l	pro_sup_l	wrist_flex_l	wrist_dev_l
0.640000	27.506919	0.940946	-1.627239	1.206712	0.041445	0.044339	32.038463	-3.325083	-4.597207	-4.365573	4.991738	0.000000	0.000000	-6.310000	3.274358	-7.188474	-6.824548	16.071881	0.000000	0.000000	-2.127381	-3.770415	-0.583162	-13.391635	-8.055818	-11.691315	30.938516	111.311492	0.000000	0.000000	12.654735	-12.409700	-0.511957	46.958446	108.307813	0.000000	0.000000	
0.645000	27.615870	0.882259	-1.447289	1.212385	0.040879	0.044605	32.075566	-3.260888	-4.475910	-4.353566	5.063791	0.000000	0.000000	-6.408881	3.122332	-7.147292	-7.231689	16.383090	0.000000	0.000000	-2.144201	-3.695628	-0.534198	-13.135462	-8.067490	-11.577515	30.839804	111.364242	0.000000	0.000000	12.469026	-12.367095	-0.529287	46.956156	108.251282	0.000000	0.000000	
0.650000	27.587537	0.799131	-1.224521	1.217204	0.040061	0.044939	32.115435	-3.196917	-4.305849	-4.494218	5.130690	0.000000	0.000000	-6.519551	2.967657	-7.104638	-7.654692	16.667547	0.000000	0.000000	-2.174409	-3.617463	-0.488905	-12.871767	-8.088577	-11.436356	30.739957	111.427532	0.000000	0.000000	12.270417	-12.318743	-0.568218	46.931492	108.190679	0.000000	0.000000	
0.655000	27.416138	0.699887	-0.973400	1.221201	0.039022	0.045330	32.162365	-3.131140	-4.104151	-4.788261	5.183722	0.000000	0.000000	-6.642492	2.808996	-7.061852	-8.091589	16.920592	0.000000	0.000000	-2.216263	-3.534717	-0.446198	-12.600971	-8.119031	-11.266205	30.639197	111.502102	0.000000	0.000000	12.057594	-12.263443	-0.632083	46.884691	108.124938	0.000000	0.000000	
0.660000	27.101409	0.594551	-0.711290	1.224431	0.037808	0.045762	32.219494	-3.061208	-3.891875	-5.230631	5.215419	0.000000	0.000000	-6.777546	2.644380	-7.020271	-8.541285	17.139548	0.000000	0.000000	-2.267709	-3.445868	-0.405008	-12.324012	-8.158301	-11.067151	30.538292	111.587816	0.000000	0.000000	11.829733	-12.200201	-0.723123	46.815542	108.053706	0.000000	0.000000	
0.665000	26.649758	0.493729	-0.456374	1.226980	0.036472	0.046213	32.288126	-2.984753	-3.691401	-5.809873	5.220688	0.000000	0.000000	-6.924096	2.471523	-6.981122	-9.003453	17.323637	0.000000	0.000000	-2.326612	-3.349344	-0.364371	-12.042294	-8.205368	-10.841161	30.438561	111.683565	0.000000	0.000000	11.586614	-12.128442	-0.842140	46.723245	107.977573	0.000000	0.000000	
0.670000	26.074457	0.407368	-0.225247	1.228953	0.035072	0.046652	32.367261	-2.899642	-3.523473	-6.508119	5.197332	0.000000	0.000000	-7.081211	2.288120	-6.945447	-9.478368	17.473590	0.000000	0.000000	-2.390958	-3.243767	-0.323480	-11.757533	-8.258813	-10.591987	30.341737	111.787321	0.000000	0.000000	11.328662	-12.048177	-0.988334	46.606374	107.898124	0.000000	0.000000	
0.675000	25.394760	0.343535	-0.030588	1.230473	0.033666	0.047046	32.453433	-2.804126	-3.404386	-7.301722	5.145849	0.000000	0.000000	-7.247731	2.092106	-6.914095	-9.966688	17.591061	0.000000	0.000000	-2.458977	-3.128139	-0.281688	-11.471530	-8.316932	-10.324816	30.249734	111.896355	0.000000	0.000000	11.056911	-11.960074	-1.159375	46.462926	107.817776	0.000000	0.000000	
0.680000	24.634016	0.307410	0.120674	1.231671	0.032299	0.047360	32.540901	-2.696871	-3.343775	-8.162526	5.068562	0.000000	0.000000	-7.422269	1.881828	-6.887757	-10.469249	17.677926	0.000000	0.000000	-2.529175	-3.001924	-0.238469	-11.185940	-8.377877	-10.045712	30.164351	112.007586	0.000000	0.000000	10.772901	-11.865404	-1.351712	46.290457	107.739450	0.000000	0.000000	
0.685000	23.817067	0.300672	0.228345	1.232671	0.031010	0.047571	32.622195	-2.576903	-3.343419	-9.059687	4.968296	0.000000	0.000000	-7.603123	1.656138	-6.867028	-10.986912	17.735652	0.000000	0.000000	-2.600265	-2.865050	-0.193333	-10.902055	-8.439818	-9.760933	30.086997	112.117994	0.000000	0.000000	10.478529	-11.765863	-1.561048	46.086295	107.666100	0.000000	0.000000	
